<svg id="canvas" width="742.200" height="239.297" viewBox="245.794 242.713 742.200 239.297" preserveAspectRatio="xMidYMid meet" class="h-full w-full max-w-4xl text-primary transition-opacity duration-300 opacity-100" xmlns="http://www.w3.org/2000/svg"><g id="canvas-strokes"><path d="M 249.99,285.27 C 249.41 286.36, 249.01 287.54, 248.85 290.83 C 248.68 294.12, 248.93 296.32, 249.16 301.73 C 249.38 307.14, 249.57 311.11, 249.96 317.90 C 250.36 324.69, 250.69 328.98, 251.14 335.69 C 251.58 342.39, 251.74 345.91, 252.19 351.42 C 252.64 356.94, 252.89 359.43, 253.38 363.26 C 253.87 367.08, 253.91 368.45, 254.63 370.56 C 255.35 372.67, 255.96 373.28, 256.97 373.81 C 257.99 374.33, 258.82 374.38, 259.69 373.19 C 260.57 372.01, 261.08 370.94, 261.34 367.88 C 261.61 364.83, 261.22 362.91, 261.02 357.92 C 260.81 352.93, 260.59 349.71, 260.32 342.93 C 260.04 336.16, 259.77 331.75, 259.64 324.07 C 259.51 316.38, 259.58 312.25, 259.66 304.52 C 259.74 296.79, 259.81 292.59, 260.06 285.42 C 260.30 278.24, 260.26 274.56, 260.89 268.64 C 261.52 262.72, 261.99 259.67, 263.19 255.83 C 264.39 251.98, 265.38 250.76, 266.89 249.41 C 268.39 248.06, 268.75 247.85, 270.70 249.07 C 272.65 250.29, 274.10 251.32, 276.62 255.52 C 279.14 259.72, 280.75 263.36, 283.31 270.06 C 285.87 276.76, 286.94 281.30, 289.43 289.04 C 291.93 296.77, 293.30 301.02, 295.78 308.73 C 298.27 316.45, 299.79 320.61, 301.86 327.61 C 303.92 334.61, 304.75 337.88, 306.11 343.72 C 307.48 349.56, 307.82 352.46, 308.68 356.80 C 309.54 361.14, 309.85 363.02, 310.41 365.42 C 310.97 367.82, 311.07 368.14, 311.48 368.81 C 311.88 369.48, 312.12 369.52, 312.44 368.75 C 312.76 367.99, 313.32 367.48, 313.07 364.99 C 312.83 362.49, 312.22 360.61, 311.22 356.26 C 310.22 351.90, 309.62 349.06, 308.09 343.23 C 306.56 337.40, 305.70 334.10, 303.57 327.10 C 301.44 320.09, 299.90 315.93, 297.43 308.20 C 294.96 300.48, 293.62 296.26, 291.22 288.47 C 288.82 280.69, 287.87 276.15, 285.42 269.28 C 282.97 262.41, 281.63 258.69, 278.97 254.13 C 276.31 249.57, 274.87 247.84, 272.12 246.49 C 269.37 245.13, 267.50 245.64, 265.22 247.36 C 262.94 249.07, 262.01 250.85, 260.73 255.07 C 259.44 259.28, 259.30 262.39, 258.80 268.45 C 258.30 274.50, 258.40 278.15, 258.21 285.36 C 258.02 292.57, 257.96 296.75, 257.85 304.49 C 257.74 312.24, 257.65 316.39, 257.68 324.09 C 257.70 331.79, 257.93 336.22, 257.95 342.99 C 257.97 349.75, 258.03 352.98, 257.78 357.91 C 257.52 362.83, 256.76 364.67, 256.66 367.60 C 256.56 370.53, 257.00 371.50, 257.28 372.55 C 257.56 373.61, 257.99 373.42, 258.07 372.87 C 258.14 372.31, 258.02 371.77, 257.66 369.76 C 257.29 367.75, 256.86 366.55, 256.24 362.83 C 255.61 359.12, 255.11 356.66, 254.53 351.20 C 253.96 345.74, 253.79 342.23, 253.37 335.54 C 252.94 328.86, 252.67 324.56, 252.41 317.78 C 252.15 311.01, 252.08 307.04, 252.05 301.66 C 252.02 296.28, 252.31 294.14, 252.25 290.89 C 252.18 287.63, 252.19 286.49, 251.74 285.37 C 251.29 284.25, 250.57 284.18, 249.99 285.27" style="stroke: #f5f5f5; fill: #f5f5f5;"/><path d="M 252.60,341.49 C 253.75 341.66, 254.78 341.22, 257.76 340.65 C 260.75 340.07, 262.82 339.74, 267.50 338.62 C 272.18 337.49, 278.59 336.39, 281.17 335.03 C 283.74 333.67, 283.27 331.83, 280.37 331.82 C 277.47 331.81, 271.38 333.94, 266.67 334.99 C 261.96 336.03, 259.76 336.07, 256.83 337.04 C 253.89 338.00, 252.84 338.92, 251.99 339.81 C 251.14 340.70, 251.44 341.32, 252.60 341.49" style="stroke: #f5f5f5; fill: #f5f5f5;"/><path d="M 391.00,315.23 C 390.42 314.47, 389.35 313.60, 387.49 313.35 C 385.62 313.11, 384.38 312.83, 381.67 313.99 C 378.96 315.14, 377.08 316.36, 373.95 319.15 C 370.82 321.94, 368.98 323.93, 366.01 327.93 C 363.04 331.93, 361.38 334.88, 359.10 339.15 C 356.82 343.42, 355.46 345.54, 354.61 349.28 C 353.76 353.01, 353.87 355.29, 354.87 357.83 C 355.87 360.37, 357.16 361.14, 359.61 361.96 C 362.07 362.78, 363.63 362.75, 367.14 361.93 C 370.65 361.12, 373.22 360.13, 377.18 357.88 C 381.14 355.64, 383.15 353.68, 386.95 350.68 C 390.76 347.69, 392.98 345.71, 396.21 342.90 C 399.44 340.09, 401.32 338.99, 403.11 336.64 C 404.90 334.29, 405.08 332.48, 405.15 331.13 C 405.22 329.78, 404.30 329.22, 403.47 329.90 C 402.64 330.57, 401.59 331.96, 401.00 334.50 C 400.41 337.05, 400.24 339.14, 400.53 342.63 C 400.81 346.13, 401.10 348.46, 402.42 351.99 C 403.74 355.52, 404.76 357.57, 407.14 360.28 C 409.52 362.99, 411.20 364.11, 414.31 365.52 C 417.42 366.93, 419.41 367.33, 422.67 367.34 C 425.94 367.35, 427.71 366.93, 430.64 365.56 C 433.57 364.19, 435.05 362.99, 437.34 360.49 C 439.63 358.00, 440.70 356.27, 442.10 353.09 C 443.50 349.90, 443.81 347.93, 444.34 344.57 C 444.86 341.20, 445.02 339.02, 444.73 336.26 C 444.43 333.51, 443.66 332.06, 442.87 330.78 C 442.08 329.49, 441.23 329.47, 440.77 329.85 C 440.31 330.24, 440.05 331.38, 440.58 332.71 C 441.11 334.04, 441.76 335.04, 443.41 336.50 C 445.06 337.96, 446.37 338.72, 448.82 340.00 C 451.26 341.28, 453.03 341.96, 455.63 342.90 C 458.23 343.84, 459.52 344.11, 461.80 344.70 C 464.09 345.28, 465.10 345.52, 467.06 345.84 C 469.02 346.16, 470.01 346.55, 471.61 346.31 C 473.21 346.08, 474.46 345.35, 475.07 344.66 C 475.68 343.97, 475.36 343.26, 474.66 342.87 C 473.97 342.48, 472.93 342.92, 471.59 342.71 C 470.24 342.49, 469.63 342.26, 467.95 341.79 C 466.26 341.31, 465.21 341.10, 463.16 340.33 C 461.11 339.57, 460.01 339.08, 457.70 337.97 C 455.39 336.85, 453.83 335.96, 451.62 334.76 C 449.42 333.55, 448.35 332.84, 446.68 331.93 C 445.02 331.02, 444.46 330.68, 443.31 330.19 C 442.17 329.71, 441.68 329.26, 440.96 329.50 C 440.25 329.75, 439.99 330.01, 439.76 331.42 C 439.53 332.84, 439.77 334.07, 439.83 336.59 C 439.88 339.10, 440.33 341.03, 440.02 344.00 C 439.72 346.97, 439.44 348.71, 438.29 351.45 C 437.14 354.18, 436.16 355.62, 434.27 357.68 C 432.39 359.75, 431.18 360.67, 428.85 361.78 C 426.53 362.89, 425.25 363.21, 422.66 363.23 C 420.08 363.25, 418.45 362.99, 415.94 361.89 C 413.43 360.78, 412.02 359.96, 410.11 357.71 C 408.21 355.46, 407.30 353.72, 406.43 350.65 C 405.56 347.59, 405.80 345.51, 405.77 342.38 C 405.73 339.25, 406.36 337.45, 406.25 335.00 C 406.14 332.55, 405.81 331.11, 405.20 330.13 C 404.60 329.15, 404.28 329.33, 403.22 330.10 C 402.16 330.87, 401.75 331.93, 399.90 333.99 C 398.05 336.06, 396.96 337.60, 393.97 340.43 C 390.98 343.26, 388.66 345.26, 384.96 348.13 C 381.26 351.00, 379.23 352.78, 375.47 354.78 C 371.72 356.78, 369.19 357.30, 366.18 358.14 C 363.16 358.98, 362.07 359.25, 360.39 358.99 C 358.72 358.73, 358.29 358.60, 357.79 356.82 C 357.30 355.04, 357.11 353.31, 357.92 350.07 C 358.74 346.83, 359.74 344.66, 361.88 340.64 C 364.03 336.61, 365.74 333.65, 368.66 329.95 C 371.57 326.26, 373.45 324.46, 376.45 322.16 C 379.45 319.86, 381.45 319.49, 383.66 318.46 C 385.87 317.43, 386.16 317.27, 387.51 317.01 C 388.86 316.74, 389.71 317.49, 390.41 317.14 C 391.11 316.78, 391.59 315.98, 391.00 315.23" style="stroke: #f5f5f5; fill: #f5f5f5;"/><path d="M 509.40,319.06 C 508.89 319.65, 508.67 320.11, 508.51 321.82 C 508.34 323.53, 508.14 324.94, 508.59 327.60 C 509.05 330.26, 509.72 331.90, 510.79 335.12 C 511.85 338.34, 512.52 340.44, 513.92 343.69 C 515.32 346.93, 515.75 348.90, 517.79 351.35 C 519.84 353.80, 521.42 354.95, 524.12 355.94 C 526.82 356.93, 528.36 357.07, 531.29 356.29 C 534.22 355.51, 535.77 354.26, 538.77 352.03 C 541.77 349.79, 543.31 348.22, 546.29 345.12 C 549.27 342.02, 550.92 340.17, 553.67 336.55 C 556.42 332.93, 557.84 330.81, 560.04 327.04 C 562.24 323.26, 563.33 321.04, 564.68 317.67 C 566.04 314.30, 566.69 312.34, 566.82 310.19 C 566.94 308.04, 566.21 307.25, 565.30 306.94 C 564.40 306.62, 563.44 307.11, 562.31 308.62 C 561.18 310.13, 560.44 311.42, 559.66 314.49 C 558.88 317.56, 558.70 319.79, 558.42 323.96 C 558.14 328.13, 558.08 330.51, 558.26 335.34 C 558.44 340.18, 558.76 342.60, 559.31 348.12 C 559.85 353.65, 560.12 356.80, 560.98 362.95 C 561.83 369.10, 562.39 372.32, 563.58 378.87 C 564.77 385.43, 565.69 388.87, 566.93 395.74 C 568.17 402.61, 568.87 406.43, 569.78 413.24 C 570.70 420.05, 571.34 423.56, 571.52 429.79 C 571.69 436.01, 571.59 439.08, 570.64 444.37 C 569.69 449.66, 568.79 452.08, 566.76 456.23 C 564.73 460.37, 563.47 462.07, 560.49 465.09 C 557.51 468.11, 555.79 469.36, 551.87 471.34 C 547.95 473.33, 545.51 473.99, 540.89 475.01 C 536.27 476.02, 533.88 476.60, 528.78 476.41 C 523.69 476.23, 520.62 475.69, 515.41 474.08 C 510.20 472.46, 507.34 471.34, 502.73 468.36 C 498.12 465.38, 495.82 463.36, 492.35 459.18 C 488.88 455.00, 487.12 452.35, 485.39 447.47 C 483.67 442.59, 483.26 439.85, 483.72 434.78 C 484.19 429.72, 484.72 427.18, 487.73 422.13 C 490.74 417.08, 493.86 414.12, 498.77 409.54 C 503.68 404.97, 507.49 402.56, 512.28 399.25 C 517.08 395.94, 520.84 394.55, 522.75 392.98 C 524.66 391.41, 524.16 390.50, 521.83 391.40 C 519.49 392.29, 515.99 394.17, 511.07 397.47 C 506.16 400.78, 502.31 403.22, 497.27 407.93 C 492.23 412.65, 489.03 415.70, 485.88 421.03 C 482.73 426.36, 482.03 429.13, 481.50 434.57 C 480.96 440.01, 481.38 443.02, 483.20 448.24 C 485.01 453.46, 486.91 456.25, 490.56 460.66 C 494.21 465.08, 496.63 467.18, 501.45 470.33 C 506.28 473.47, 509.24 474.66, 514.68 476.39 C 520.13 478.11, 523.33 478.71, 528.68 478.95 C 534.03 479.20, 536.57 478.65, 541.45 477.61 C 546.34 476.58, 548.92 475.90, 553.10 473.76 C 557.29 471.62, 559.20 470.21, 562.37 466.91 C 565.54 463.62, 566.86 461.71, 568.95 457.28 C 571.04 452.84, 571.89 450.26, 572.82 444.75 C 573.74 439.24, 573.77 436.08, 573.55 429.72 C 573.34 423.37, 572.66 419.85, 571.72 412.98 C 570.78 406.12, 570.08 402.29, 568.86 395.40 C 567.64 388.50, 566.74 385.06, 565.61 378.52 C 564.48 371.97, 563.96 368.78, 563.20 362.66 C 562.45 356.54, 562.21 353.38, 561.82 347.91 C 561.43 342.44, 561.16 340.01, 561.25 335.32 C 561.34 330.62, 561.59 328.34, 562.27 324.42 C 562.95 320.49, 563.98 318.59, 564.64 315.69 C 565.30 312.78, 565.49 311.53, 565.58 309.88 C 565.67 308.22, 565.50 307.51, 565.08 307.42 C 564.66 307.33, 564.27 307.65, 563.49 309.42 C 562.70 311.19, 562.41 313.07, 561.16 316.27 C 559.90 319.48, 559.23 321.78, 557.22 325.44 C 555.21 329.10, 553.81 331.15, 551.12 334.59 C 548.44 338.03, 546.73 339.79, 543.80 342.65 C 540.87 345.51, 539.20 346.93, 536.47 348.89 C 533.75 350.85, 532.37 351.72, 530.17 352.44 C 527.96 353.16, 527.25 353.23, 525.47 352.48 C 523.68 351.73, 522.72 350.76, 521.23 348.67 C 519.74 346.58, 519.13 345.02, 517.99 342.03 C 516.85 339.04, 516.33 336.84, 515.54 333.73 C 514.75 330.62, 514.64 328.98, 514.05 326.49 C 513.46 324.00, 513.17 322.80, 512.57 321.28 C 511.98 319.75, 511.71 319.30, 511.07 318.86 C 510.44 318.42, 509.92 318.46, 509.40 319.06" style="stroke: #f5f5f5; fill: #f5f5f5;"/><path d="M 636.20,342.69 C 635.74 341.65, 634.73 340.52, 632.84 339.14 C 630.96 337.76, 629.52 337.05, 626.78 335.80 C 624.04 334.54, 622.23 333.54, 619.15 332.85 C 616.08 332.16, 614.47 332.14, 611.41 332.36 C 608.35 332.58, 606.65 332.69, 603.84 333.96 C 601.02 335.23, 599.26 336.20, 597.34 338.70 C 595.41 341.20, 594.85 343.25, 594.22 346.45 C 593.58 349.65, 593.49 351.58, 594.16 354.70 C 594.83 357.83, 595.52 359.63, 597.57 362.06 C 599.63 364.48, 601.42 365.73, 604.44 366.85 C 607.47 367.96, 609.50 367.90, 612.70 367.62 C 615.91 367.35, 617.48 366.65, 620.48 365.45 C 623.48 364.25, 624.95 363.53, 627.69 361.63 C 630.44 359.74, 631.96 358.33, 634.19 355.97 C 636.41 353.61, 637.65 352.05, 638.84 349.83 C 640.02 347.61, 640.10 346.24, 640.10 344.88 C 640.11 343.51, 639.53 343.04, 638.88 343.01 C 638.23 342.98, 637.54 343.42, 636.85 344.72 C 636.17 346.02, 635.46 347.26, 635.44 349.50 C 635.42 351.75, 635.62 353.48, 636.75 355.95 C 637.89 358.41, 639.01 359.94, 641.11 361.81 C 643.21 363.68, 644.69 364.51, 647.23 365.30 C 649.78 366.08, 651.12 366.09, 653.85 365.72 C 656.58 365.35, 658.03 364.92, 660.90 363.46 C 663.77 362.00, 665.32 360.86, 668.21 358.42 C 671.11 355.99, 672.60 354.22, 675.38 351.29 C 678.16 348.36, 679.85 346.53, 682.10 343.79 C 684.35 341.04, 685.53 339.26, 686.63 337.56 C 687.73 335.86, 687.50 335.14, 687.60 335.30 C 687.70 335.46, 687.37 336.70, 687.13 338.35 C 686.88 340.00, 686.38 341.23, 686.39 343.57 C 686.40 345.90, 686.12 347.58, 687.18 350.01 C 688.23 352.44, 689.47 354.06, 691.67 355.72 C 693.87 357.38, 695.57 357.83, 698.20 358.32 C 700.82 358.81, 702.11 358.64, 704.78 358.17 C 707.45 357.70, 709.18 357.11, 711.56 355.97 C 713.95 354.83, 714.78 353.46, 716.69 352.49 C 718.59 351.51, 719.46 351.28, 721.10 351.10 C 722.74 350.91, 723.46 350.61, 724.89 351.56 C 726.32 352.51, 726.74 353.59, 728.24 355.85 C 729.74 358.11, 730.65 360.43, 732.38 362.88 C 734.10 365.32, 735.18 366.50, 736.85 368.07 C 738.53 369.64, 739.56 370.15, 740.77 370.73 C 741.98 371.30, 742.38 371.07, 742.90 370.96 C 743.41 370.84, 743.42 370.59, 743.35 370.15 C 743.27 369.71, 743.12 369.76, 742.53 368.74 C 741.94 367.72, 741.55 366.83, 740.40 365.06 C 739.25 363.29, 738.38 362.35, 736.77 359.89 C 735.16 357.43, 734.34 355.11, 732.34 352.75 C 730.35 350.39, 729.11 349.23, 726.82 348.11 C 724.52 346.98, 723.29 347.09, 720.89 347.13 C 718.49 347.16, 717.12 347.39, 714.82 348.28 C 712.53 349.16, 711.62 350.47, 709.43 351.55 C 707.24 352.62, 705.96 353.17, 703.88 353.65 C 701.79 354.13, 700.86 354.29, 698.98 353.97 C 697.10 353.64, 695.95 353.17, 694.48 352.03 C 693.02 350.89, 692.22 349.99, 691.66 348.27 C 691.11 346.55, 691.83 345.51, 691.72 343.43 C 691.61 341.34, 691.82 339.77, 691.13 337.85 C 690.45 335.93, 689.72 334.38, 688.29 333.83 C 686.86 333.27, 685.85 333.60, 683.98 335.07 C 682.10 336.54, 681.19 338.43, 678.91 341.16 C 676.64 343.88, 675.27 345.86, 672.62 348.69 C 669.98 351.53, 668.43 353.17, 665.69 355.33 C 662.95 357.50, 661.41 358.28, 658.92 359.52 C 656.43 360.75, 655.30 361.19, 653.24 361.53 C 651.17 361.86, 650.34 361.86, 648.61 361.20 C 646.88 360.54, 645.93 359.72, 644.57 358.24 C 643.21 356.76, 642.47 355.60, 641.80 353.81 C 641.14 352.02, 641.43 351.01, 641.26 349.28 C 641.10 347.56, 641.36 346.45, 640.96 345.17 C 640.55 343.89, 639.96 343.17, 639.24 342.90 C 638.51 342.62, 638.21 342.89, 637.33 343.78 C 636.45 344.68, 636.14 345.55, 634.84 347.36 C 633.53 349.18, 632.72 350.70, 630.80 352.86 C 628.88 355.01, 627.61 356.42, 625.23 358.14 C 622.85 359.86, 621.48 360.46, 618.90 361.47 C 616.31 362.49, 614.90 362.99, 612.31 363.23 C 609.72 363.47, 608.23 363.46, 605.95 362.66 C 603.67 361.87, 602.39 361.02, 600.92 359.24 C 599.44 357.47, 599.02 356.19, 598.58 353.81 C 598.13 351.42, 598.22 349.79, 598.68 347.31 C 599.14 344.82, 599.50 343.25, 600.88 341.38 C 602.26 339.51, 603.42 338.84, 605.58 337.94 C 607.73 337.04, 609.18 336.95, 611.65 336.88 C 614.12 336.81, 615.35 336.84, 617.95 337.59 C 620.55 338.34, 622.09 339.53, 624.65 340.62 C 627.21 341.70, 628.66 342.28, 630.76 343.03 C 632.86 343.78, 634.04 344.45, 635.13 344.38 C 636.22 344.31, 636.66 343.74, 636.20 342.69" style="stroke: #f5f5f5; fill: #f5f5f5;"/><path d="M 892.69,306.57 C 891.58 307.29, 890.47 308.25, 888.66 311.15 C 886.86 314.06, 885.87 316.11, 883.67 321.10 C 881.48 326.09, 880.22 329.98, 877.68 336.11 C 875.15 342.23, 873.63 345.54, 871.01 351.74 C 868.39 357.93, 866.85 361.49, 864.59 367.08 C 862.33 372.67, 861.21 375.44, 859.71 379.68 C 858.20 383.92, 857.51 386.14, 857.06 388.28 C 856.60 390.42, 857.04 390.43, 857.42 390.37 C 857.81 390.32, 858.64 389.36, 858.99 388.02 C 859.34 386.68, 859.80 384.58, 859.17 383.66 C 858.54 382.74, 856.60 382.58, 855.85 383.43 C 855.10 384.28, 855.16 386.42, 855.42 387.90 C 855.68 389.38, 856.24 390.55, 857.12 390.82 C 858.00 391.10, 858.77 391.32, 859.82 389.27 C 860.86 387.22, 860.97 384.84, 862.34 380.57 C 863.71 376.29, 864.54 373.49, 866.68 367.90 C 868.81 362.30, 870.37 358.76, 873.01 352.59 C 875.66 346.42, 877.26 343.11, 879.92 337.06 C 882.58 331.00, 883.98 327.15, 886.30 322.30 C 888.63 317.46, 889.97 315.76, 891.54 312.82 C 893.12 309.87, 893.95 308.83, 894.18 307.59 C 894.41 306.34, 893.79 305.86, 892.69 306.57" style="stroke: #f5f5f5; fill: #f5f5f5;"/><path d="M 884.61,306.13 C 885.67 305.75, 886.76 304.35, 888.05 303.02 C 889.34 301.68, 889.92 300.51, 891.04 299.45 C 892.15 298.39, 892.38 297.37, 893.63 297.71 C 894.88 298.04, 895.44 298.96, 897.28 301.13 C 899.12 303.31, 900.33 304.79, 902.84 308.58 C 905.35 312.37, 907.09 315.03, 909.82 320.06 C 912.55 325.09, 913.73 328.21, 916.47 333.72 C 919.22 339.24, 920.91 342.22, 923.53 347.65 C 926.15 353.09, 927.21 355.92, 929.57 360.89 C 931.92 365.86, 933.02 368.41, 935.30 372.50 C 937.58 376.59, 939.21 378.41, 940.96 381.34 C 942.72 384.27, 943.14 385.25, 944.07 387.14 C 945.00 389.03, 945.13 389.75, 945.60 390.81 C 946.06 391.86, 946.25 391.90, 946.41 392.42 C 946.57 392.93, 946.19 393.10, 946.40 393.39 C 946.62 393.67, 947.07 394.03, 947.48 393.85 C 947.90 393.66, 948.30 393.23, 948.49 392.46 C 948.67 391.68, 948.66 391.33, 948.40 389.97 C 948.15 388.61, 948.15 387.75, 947.22 385.67 C 946.30 383.59, 945.69 382.48, 943.77 379.57 C 941.85 376.67, 940.03 375.09, 937.62 371.15 C 935.20 367.21, 934.10 364.76, 931.69 359.87 C 929.28 354.97, 928.18 352.11, 925.56 346.67 C 922.94 341.24, 921.27 338.26, 918.60 332.69 C 915.92 327.12, 914.80 323.98, 912.20 318.81 C 909.61 313.65, 908.00 310.92, 905.64 306.84 C 903.28 302.76, 902.64 300.94, 900.40 298.42 C 898.15 295.90, 896.81 294.76, 894.44 294.25 C 892.06 293.74, 890.53 294.70, 888.50 295.87 C 886.47 297.04, 885.43 298.28, 884.27 300.09 C 883.12 301.91, 882.66 303.75, 882.73 304.96 C 882.79 306.17, 883.54 306.52, 884.61 306.13" style="stroke: #f5f5f5; fill: #f5f5f5;"/><path d="M 867.97,366.10 C 868.89 366.51, 869.55 366.55, 872.34 366.51 C 875.12 366.48, 876.98 366.11, 881.88 365.93 C 886.79 365.74, 890.14 365.76, 896.86 365.58 C 903.58 365.41, 907.87 365.32, 915.49 365.03 C 923.10 364.74, 927.27 364.41, 934.94 364.14 C 942.61 363.88, 946.99 363.64, 953.84 363.70 C 960.70 363.77, 964.26 364.00, 969.22 364.47 C 974.19 364.93, 975.90 365.64, 978.68 366.03 C 981.47 366.43, 982.00 366.26, 983.15 366.46 C 984.31 366.66, 984.11 367.02, 984.47 367.02 C 984.83 367.03, 985.09 366.95, 984.96 366.50 C 984.83 366.05, 984.98 365.49, 983.83 364.77 C 982.68 364.04, 982.09 363.41, 979.20 362.87 C 976.31 362.34, 974.46 362.33, 969.39 362.10 C 964.32 361.88, 960.75 361.70, 953.85 361.74 C 946.95 361.77, 942.56 362.03, 934.87 362.29 C 927.19 362.56, 923.04 362.88, 915.43 363.05 C 907.82 363.23, 903.55 363.22, 896.84 363.18 C 890.12 363.13, 886.81 362.93, 881.86 362.82 C 876.91 362.72, 874.92 362.33, 872.09 362.66 C 869.26 362.98, 868.53 363.78, 867.71 364.47 C 866.88 365.16, 867.04 365.69, 867.97 366.10" style="stroke: #f5f5f5; fill: #f5f5f5;"/></g></svg>